{"title":"Scooby-Doo! Mystery Incorporated Complete Season 2 1080P WEB-DL ","magnet":"magnet:?xt=urn:btih:d8d1f3be5705657842de2a8b68bbf2cb0250d6dc&dn=Scooby-Doo%21+Mystery+Incorporated+Complete+Season+2+1080P+WEB-DL+&tr=udp%3A%2F%2Ftracker.leechers-paradise.org%3A6969&tr=udp%3A%2F%2Fzer0day.ch%3A1337&tr=udp%3A%2F%2Fopen.demonii.com%3A1337&tr=udp%3A%2F%2Ftracker.coppersurfer.tk%3A6969&tr=udp%3A%2F%2Fexodus.desync.com%3A6969","uploader":"jmanwf","categoryP":"video","categoryS":"hd___tv_shows","size":"22713223112","seeders":"3","leechers":"3","description":"Description\r\n\r\nScooby-Doo and the gang attempt to solve creepy mysteries in the town of Crystal Cove, a place with a history of eerie supernatural events.\r\n\r\n\r\nVideo\r\nID                                       : 2\r\nFormat                                   : AVC\r\nFormat/Info                              : Advanced Video Codec\r\nFormat profile                           : <a class=\"__cf_email__\" href=\"/cdn-cgi/l/email-protection\" data-cfemail=\"85cdece2edc5c9b1\">[email&#xA0;protected]</a><script data-cfhash=\"f9e31\" type=\"text/javascript\">/* <![CDATA[ */!function(t,e,r,n,c,a,p){try{t=document.currentScript||function(){for(t=document.getElementsByTagName('script'),e=t.length;e--;)if(t[e].getAttribute('data-cfhash'))return t[e]}();if(t&&(c=t.previousSibling)){p=t.parentNode;if(a=c.getAttribute('data-cfemail')){for(e='',r='0x'+a.substr(0,2)|0,n=2;a.length-n;n+=2)e+='%'+('0'+('0x'+a.substr(n,2)^r).toString(16)).slice(-2);p.replaceChild(document.createTextNode(decodeURIComponent(e)),c)}p.removeChild(t)}}catch(u){}}()/* ]]> */</script>\r\nFormat settings, CABAC                   : Yes\r\nFormat settings, ReFrames                : 4 frames\r\nCodec ID                                 : avc1\r\nCodec ID/Info                            : Advanced Video Coding\r\nDuration                                 : 22 min 46 s\r\nDuration_LastFrame                       : -1 ms\r\nBit rate                                 : 5 134 kb/s\r\nWidth                                    : 1 920 pixels\r\nHeight                                   : 1 080 pixels\r\nDisplay aspect ratio                     : 16:9\r\nFrame rate mode                          : Constant\r\nFrame rate                               : 23.976 (23976/1000) FPS\r\nColor space                              : YUV\r\nChroma subsampling                       : 4:2:0\r\nBit depth                                : 8 bits\r\nScan type                                : Progressive\r\nBits/(Pixel*Frame)                       : 0.103\r\nStream size                              : 836 MiB (98%)\r\nLanguage                                 : English\r\nEncoded date                             : UTC 2016-09-05 08:50:02\r\nTagged date                              : UTC 2016-09-05 08:50:47\r\nColor range                              : Limited\r\nColor primaries                          : BT.709\r\nTransfer characteristics                 : BT.709\r\nMatrix coefficients                      : BT.709\r\n\r\nAudio\r\nID                                       : 1\r\nFormat                                   : AAC\r\nFormat/Info                              : Advanced Audio Codec\r\nFormat profile                           : LC\r\nCodec ID                                 : 40\r\nDuration                                 : 22 min 46 s\r\nDuration_LastFrame                       : -19 ms\r\nBit rate mode                            : Variable\r\nBit rate                                 : 125 kb/s\r\nMaximum bit rate                         : 211 kb/s\r\nChannel(s)                               : 2 channels\r\nChannel positions                        : Front: L R\r\nSampling rate                            : 48.0 kHz\r\nFrame rate                               : 46.875 FPS (1024 spf)\r\nCompression mode                         : Lossy\r\nStream size                              : 20.4 MiB (2%)\r\nLanguage                                 : English\r\nDefault                                  : Yes\r\nAlternate group                          : 1\r\nEncoded date                             : UTC 2016-09-05 08:48:46\r\nTagged date                              : UTC 2016-09-05 08:50:02","last_updated":"2017-06-04T12:01:03.971Z","parsed":{"xt":"urn:btih:d8d1f3be5705657842de2a8b68bbf2cb0250d6dc","dn":"Scooby-Doo! Mystery Incorporated Complete Season 2 1080P WEB-DL ","tr":["udp://exodus.desync.com:6969","udp://open.demonii.com:1337","udp://tracker.coppersurfer.tk:6969","udp://tracker.leechers-paradise.org:6969","udp://zer0day.ch:1337"],"infoHash":"d8d1f3be5705657842de2a8b68bbf2cb0250d6dc","infoHashBuffer":{"type":"Buffer","data":[216,209,243,190,87,5,101,120,66,222,42,139,104,187,242,203,2,80,214,220]},"name":"Scooby-Doo! Mystery Incorporated Complete Season 2 1080P WEB-DL ","announce":["udp://exodus.desync.com:6969","udp://open.demonii.com:1337","udp://tracker.coppersurfer.tk:6969","udp://tracker.leechers-paradise.org:6969","udp://zer0day.ch:1337"],"urlList":[]}}